HIERARCHY
ROOT SpineBase
{
  OFFSET 0.000000 0.000000 0.000000
  CHANNELS 6 Xposition Yposition Zposition Zrotation Xrotation Yrotation
  JOINT SpineMid
  {
    OFFSET 0.000000 31.868283 0.000000
    CHANNELS 3 Zrotation Xrotation Yrotation
    JOINT SpineShoulder
    {
      OFFSET 0.094108 23.726095 -0.937493
      CHANNELS 3 Zrotation Xrotation Yrotation
      JOINT Neck
      {
        OFFSET 0.065380 7.860209 -0.666704
        CHANNELS 3 Zrotation Xrotation Yrotation
        JOINT Head
        {
          OFFSET -3.788129 13.226632 1.810828
          CHANNELS 3 Zrotation Xrotation Yrotation
          End Site
          {
            OFFSET 0 0 0
          }
        }
      }
      JOINT ShoulderLeft
      {
        OFFSET -16.137690 -4.494712 8.580645
        CHANNELS 3 Zrotation Xrotation Yrotation
        JOINT ElbowLeft
        {
          OFFSET -3.341419 -27.440438 4.324718
          CHANNELS 3 Zrotation Xrotation Yrotation
          JOINT WristLeft
          {
            OFFSET 0.366538 -24.212230 0.603869
            CHANNELS 3 Zrotation Xrotation Yrotation
            JOINT HandLeft
            {
              OFFSET -2.225092 -4.146441 -0.349678
              CHANNELS 3 Zrotation Xrotation Yrotation
              JOINT HandTipLeft
              {
                OFFSET -1.405768 -9.966459 -2.756456
                CHANNELS 3 Zrotation Xrotation Yrotation
                End Site
                {
                  OFFSET 0 0 0
                }
              }
              JOINT ThumbLeft
              {
                OFFSET 3.864469 2.886968 -2.647827
                CHANNELS 3 Zrotation Xrotation Yrotation
                End Site
                {
                  OFFSET 0 0 0
                }
              }
            }
          }
        }
      }
      JOINT ShoulderRight
      {
        OFFSET 12.334373 -3.818724 -8.644131
        CHANNELS 3 Zrotation Xrotation Yrotation
        JOINT ElbowRight
        {
          OFFSET 8.704437 -26.910064 -4.259591
          CHANNELS 3 Zrotation Xrotation Yrotation
          JOINT WristRight
          {
            OFFSET 2.776041 -21.842864 -4.839723
            CHANNELS 3 Zrotation Xrotation Yrotation
            JOINT HandRight
            {
              OFFSET 0.912828 -6.805936 2.032144
              CHANNELS 3 Zrotation Xrotation Yrotation
              JOINT HandTipRight
              {
                OFFSET 0.565613 -8.016761 0.142546
                CHANNELS 3 Zrotation Xrotation Yrotation
                End Site
                {
                  OFFSET 0 0 0
                }
              }
              JOINT ThumbRight
              {
                OFFSET -3.415941 -0.140633 -1.008634
                CHANNELS 3 Zrotation Xrotation Yrotation
                End Site
                {
                  OFFSET 0 0 0
                }
              }
            }
          }
        }
      }
    }
  }
  JOINT HipLeft
  {
    OFFSET -6.412645 0.444460 -0.932948
    CHANNELS 3 Zrotation Xrotation Yrotation
    JOINT KneeLeft
    {
      OFFSET -5.680684 -34.347832 7.522353
      CHANNELS 3 Zrotation Xrotation Yrotation
      JOINT AnkleLeft
      {
        OFFSET -26.989517 -17.869022 7.251843
        CHANNELS 3 Zrotation Xrotation Yrotation
        JOINT FootLeft
        {
          OFFSET 11.481820 -6.752749 -3.092767
          CHANNELS 3 Zrotation Xrotation Yrotation
          End Site
          {
            OFFSET 0 0 0
          }
        }
      }
    }
  }
  JOINT HipRight
  {
    OFFSET 6.851018 1.476398 -6.130144
    CHANNELS 3 Zrotation Xrotation Yrotation
    JOINT KneeRight
    {
      OFFSET 7.212034 -34.863261 -1.306029
      CHANNELS 3 Zrotation Xrotation Yrotation
      JOINT AnkleRight
      {
        OFFSET 9.807723 -34.816462 5.502103
        CHANNELS 3 Zrotation Xrotation Yrotation
        JOINT FootRight
        {
          OFFSET 0.778216 -8.168082 -5.864401
          CHANNELS 3 Zrotation Xrotation Yrotation
          End Site
          {
            OFFSET 0 0 0
          }
        }
      }
    }
  }
}
MOTION
Frames: 14
Frame Time: 0.033333
-18.088035 83.514789 337.071343 -0.000000 0.000000 21.397093 -0.000000 0.000000 -21.397093 -0.000000 0.000000 0.000000 -0.000000 0.000000 0.000000 0.000000 0.000000 0.000000 -0.000000 0.000000 0.000000 -0.000000 0.000000 0.000000 -0.000000 0.000000 0.000000 -0.000000 0.000000 0.000000 0.000000 0.000000 0.000000 0.000000 0.000000 0.000000 -0.000000 0.000000 0.000000 -0.000000 0.000000 0.000000 -0.000000 0.000000 0.000000 -0.000000 0.000000 0.000000 0.000000 0.000000 0.000000 0.000000 0.000000 0.000000 -0.000000 0.000000 -21.397093 -0.000000 0.000000 0.000000 -0.000000 0.000000 0.000000 0.000000 0.000000 0.000000 -0.000000 0.000000 -21.397093 -0.000000 0.000000 0.000000 -0.000000 0.000000 0.000000 0.000000 0.000000 0.000000
-18.033680 83.454281 336.973679 -0.057254 0.137111 22.301340 0.000941 -0.148582 -22.301271 -0.000000 0.000000 0.000000 -0.000000 0.000000 0.000000 0.000000 0.000000 0.000000 -0.000000 0.000000 0.000000 0.575748 1.254861 0.027057 -2.755324 -2.704443 0.839513 1.545272 0.046862 -0.603100 0.000000 0.000000 0.000000 0.000000 0.000000 0.000000 -0.000000 0.000000 0.000000 0.108073 -3.555572 -0.475832 -1.320264 3.961285 0.265042 3.393164 -3.570816 0.192642 0.000000 0.000000 0.000000 0.000000 0.000000 0.000000 0.000941 -0.148582 -22.301271 0.148518 0.816610 -1.179901 0.084913 -1.442277 0.023225 0.000000 0.000000 0.000000 0.000941 -0.148582 -22.301271 -0.000000 0.000000 0.000000 -0.507778 -0.745817 0.291691 0.000000 0.000000 0.000000
-17.988333 83.398115 336.894493 -0.104464 0.250038 23.027434 -0.001668 -0.270978 -23.027210 -0.000000 0.000000 0.000000 -0.000000 0.000000 0.000000 0.000000 0.000000 0.000000 -0.000000 0.000000 0.000000 1.055950 2.287294 0.039901 -5.209087 -5.161563 1.516145 2.942182 -0.240562 -1.182096 0.000000 0.000000 0.000000 0.000000 0.000000 0.000000 -0.014539 -1.432437 -0.462177 0.191015 -4.680768 -0.350807 -2.682224 7.321878 0.559825 6.777468 -7.077522 0.559030 0.000000 0.000000 0.000000 0.000000 0.000000 0.000000 -0.430197 0.784132 -23.335048 1.120019 0.715698 -1.861622 0.155767 -2.676390 0.036307 0.000000 0.000000 0.000000 -0.001668 -0.270978 -23.027210 -0.000000 0.000000 0.000000 -0.936752 -1.375100 0.535335 0.000000 0.000000 0.000000
-17.951993 83.346292 336.833786 -0.141670 0.338879 23.584028 -0.005745 -0.367255 -23.583627 -0.000000 0.000000 0.000000 -0.000000 0.000000 0.000000 0.000000 0.000000 0.000000 -0.000000 0.000000 0.000000 1.436907 3.088221 0.043887 -7.316011 -7.325575 2.067372 4.201086 -0.889748 -1.734564 0.000000 0.000000 0.000000 0.000000 0.000000 0.000000 -0.038078 -2.008908 -0.646373 0.222586 -5.902422 -0.396857 -4.102615 10.433073 0.907988 10.157837 -10.563321 1.126534 0.000000 0.000000 0.000000 0.000000 0.000000 0.000000 -0.621181 1.113523 -24.016836 1.647259 0.991312 -2.546156 0.200236 -3.700368 0.041820 0.000000 0.000000 0.000000 -0.005745 -0.367255 -23.583627 -0.000000 0.000000 0.000000 -1.286215 -1.883458 0.732306 0.000000 0.000000 0.000000
-17.924660 83.298811 336.791557 -0.168909 0.403719 23.977773 -0.009730 -0.437521 -23.977215 -0.000000 0.000000 0.000000 0.697260 -0.625062 -0.270409 0.000000 0.000000 0.000000 -0.000000 0.000000 0.000000 1.715735 3.651218 0.043421 -9.033670 -9.158988 2.531508 5.361506 -1.887222 -2.269319 0.000000 0.000000 0.000000 0.000000 0.000000 0.000000 -0.071198 -2.491427 -0.799191 0.222319 -6.612992 -0.390283 -5.601384 13.594197 1.348112 13.551263 -14.103809 1.941086 0.000000 0.000000 0.000000 0.000000 0.000000 0.000000 -0.801679 1.394377 -24.516008 2.144442 1.215667 -3.069141 0.208095 -4.513337 0.041554 0.000000 0.000000 0.000000 -0.009730 -0.437521 -23.977215 -0.000000 0.000000 0.000000 -1.555659 -2.267482 0.883810 0.000000 0.000000 0.000000
-17.906334 83.255672 336.767808 -0.186211 0.444637 24.213390 -0.012530 -0.481891 -24.212720 -0.000000 0.000000 0.000000 0.833573 -0.718600 -0.314322 0.000000 0.000000 0.000000 -0.642112 0.635241 -0.175028 2.520493 3.345236 0.245046 -10.325611 -10.632505 2.944001 6.486315 -3.160012 -2.804142 0.000000 0.000000 0.000000 0.000000 0.000000 0.000000 -0.113129 -2.879640 -0.920529 0.191877 -6.910782 -0.344088 -7.203803 17.083400 1.938682 16.987334 -17.802828 3.075646 0.000000 0.000000 0.000000 0.000000 0.000000 0.000000 -0.974849 1.622315 -24.836793 2.606908 1.391608 -3.432814 0.171268 -5.115010 0.036718 0.000000 0.000000 0.000000 -0.012530 -0.481891 -24.212720 -0.000000 0.000000 0.000000 -1.744736 -2.524670 0.990819 0.000000 0.000000 0.000000
-17.913965 83.223373 336.805308 -0.214212 0.400372 24.195916 0.031300 -0.452995 -24.195044 -0.000000 0.000000 0.000000 0.843071 -0.791450 -0.335887 0.000000 0.000000 0.000000 -0.872816 0.646462 -0.211350 2.776672 3.302324 0.284538 -11.033335 -11.517172 3.319656 8.361262 -5.351477 -3.465379 0.000000 0.000000 0.000000 0.000000 0.000000 0.000000 -0.181319 -3.250398 -1.033254 0.095785 -6.362187 -0.179200 -8.889135 20.568455 2.573902 18.668204 -21.814699 4.072674 0.000000 0.000000 0.000000 0.000000 0.000000 0.000000 -1.236374 1.831446 -24.896848 3.073979 1.528928 -3.563189 0.103795 -5.360201 0.128745 0.000000 0.000000 0.000000 0.031300 -0.452995 -24.195044 -0.000000 0.000000 0.000000 -1.959970 -2.531971 1.142692 0.000000 0.000000 0.000000
-17.832865 83.259938 336.543704 -0.126342 0.552079 23.914922 0.151548 0.234076 -23.920660 0.016374 0.142920 -0.006953 0.917362 -1.674588 -0.283890 0.000000 0.000000 0.000000 -1.001531 -0.163307 -0.262905 2.982955 2.807415 0.343325 -12.325841 -11.404436 3.403746 10.094979 -7.794079 -3.612478 0.000000 0.000000 0.000000 0.000000 0.000000 0.000000 -0.205159 -4.512397 -1.107988 -0.006276 -5.208132 0.051600 -9.882307 23.711761 3.190311 22.242968 -25.484978 5.836785 0.000000 0.000000 0.000000 0.000000 0.000000 0.000000 -1.814556 1.517132 -24.624452 4.180847 2.111844 -3.611090 -0.542796 -5.659909 0.029427 0.000000 0.000000 0.000000 -0.108307 -0.555898 -23.914839 -0.000000 0.000000 0.000000 -2.123705 -2.531448 1.258914 0.000000 0.000000 0.000000
-17.974082 83.162242 336.965800 -0.287569 0.154042 23.962700 0.200223 -0.257557 -23.961864 -0.011721 0.927920 -0.008624 1.033546 -1.733111 -0.337395 0.000000 0.000000 0.000000 -1.069161 -0.017082 -0.281421 2.945538 2.736818 0.362083 -14.367827 -13.494676 4.118832 15.225526 -11.857150 -5.401218 0.000000 0.000000 0.000000 0.000000 0.000000 0.000000 -0.291970 -4.504527 -1.121224 -0.166707 -4.904834 0.133199 -11.551679 28.713182 4.480984 24.429790 -29.875571 7.578619 0.000000 0.000000 0.000000 0.000000 0.000000 0.000000 -1.193539 2.361255 -24.750523 4.028773 1.283647 -3.191036 -0.478958 -5.410241 -0.219137 0.000000 0.000000 0.000000 0.200223 -0.257557 -23.961864 -0.000000 0.000000 0.000000 0.168554 -6.152853 -0.726665 0.000000 0.000000 0.000000
-18.074049 83.051976 337.332738 -0.315383 0.122010 24.023682 0.238394 -0.239837 -24.022847 -0.000000 0.000000 0.000000 1.316700 -0.982966 -0.449555 0.000000 0.000000 0.000000 -0.966220 1.327598 -0.302999 2.088564 1.701615 0.395711 -6.725714 -14.491967 5.587843 7.502327 -2.751937 -5.973604 0.000000 0.000000 0.000000 0.000000 0.000000 0.000000 -0.322504 -3.402675 -1.065445 -0.308751 -4.773984 0.145685 -14.731833 36.136458 6.991115 29.784873 -32.300179 11.415967 0.000000 0.000000 0.000000 0.000000 0.000000 0.000000 -0.868412 2.592434 -24.828280 3.590166 0.695885 -2.834749 -0.320369 -4.953444 -0.242271 0.000000 0.000000 0.000000 0.621395 0.594311 -23.834607 -0.013274 -0.917776 -0.189531 -0.047328 -5.025890 -0.461815 0.000000 0.000000 0.000000
-18.141187 82.934808 337.584254 -0.246525 0.210014 24.007893 0.139754 -0.292146 -24.007085 -0.000000 0.000000 0.000000 1.802872 -1.398904 -0.623729 0.000000 0.000000 0.000000 -0.763562 1.692789 -0.315685 1.413117 0.917935 0.398444 -2.555512 -14.599956 6.259403 3.837007 -0.465087 -5.840825 0.000000 0.000000 0.000000 0.000000 0.000000 0.000000 -0.336560 -3.050675 -0.947578 -0.368263 -4.625646 0.105869 -17.978924 45.012857 10.855853 32.805908 -34.791145 14.919597 0.000000 0.000000 0.000000 0.000000 0.000000 0.000000 -0.687220 2.568986 -24.789024 2.757564 0.081669 -2.372406 0.018708 -4.199771 -0.214168 0.000000 0.000000 0.000000 0.628714 0.724912 -23.776908 -0.037432 -1.127865 -0.232392 -2.138341 -0.023971 1.535572 0.000000 0.000000 0.000000
-18.187826 82.823383 337.765456 -0.116656 0.368277 24.083063 -0.043777 -0.383822 -24.082835 -0.000000 0.000000 0.000000 2.392648 -1.971455 -0.848040 0.000000 0.000000 0.000000 -0.562459 1.960681 -0.318464 1.030997 0.518189 0.392874 -0.341481 -16.128265 7.382612 -1.966784 6.472999 -5.172136 0.000000 0.000000 0.000000 0.000000 0.000000 0.000000 -0.348211 -2.667711 -0.819868 -0.955833 -4.643298 0.147611 -14.293203 54.151332 13.576760 27.720718 -41.731789 13.800659 0.000000 0.000000 0.000000 0.000000 0.000000 0.000000 -0.580991 2.403316 -24.816101 2.147474 -0.448003 -1.830894 0.109279 -3.398424 -0.212221 0.000000 0.000000 0.000000 0.503287 0.674159 -23.840885 -0.072784 -1.188821 -0.244091 -5.911660 7.493673 5.131020 0.000000 0.000000 0.000000
-18.209978 82.728996 337.838162 0.064646 0.583622 24.080664 -0.297160 -0.506451 -24.082307 -0.000000 0.000000 0.000000 2.829443 -2.476120 -1.031294 0.000000 0.000000 0.000000 -0.281324 2.222213 -0.310369 0.512577 -0.027827 0.364782 1.352058 -17.031831 8.235883 -5.838186 11.909078 -4.462950 0.000000 0.000000 0.000000 0.000000 0.000000 0.000000 -0.309753 -2.243471 -0.685525 -1.271275 -4.030577 0.208209 -9.474528 51.702017 11.007420 23.388238 -39.691683 10.690289 0.000000 0.000000 0.000000 0.000000 0.000000 0.000000 -2.224348 2.410134 -25.006151 4.726291 -0.161867 -0.765784 -0.659843 -2.685333 -0.384029 0.000000 0.000000 0.000000 0.241388 0.461742 -23.857517 -0.100952 -1.103283 -0.225552 -13.646893 18.521669 12.486254 0.000000 0.000000 0.000000
-18.203507 82.651234 337.821388 0.272829 0.809210 24.098263 -0.579482 -0.627267 -24.103362 0.132887 0.816910 0.003531 3.137733 -3.679260 -1.139230 0.000000 0.000000 0.000000 -0.110002 1.533221 -0.289125 -0.152414 -0.543203 0.303835 1.634665 -17.440300 8.691603 -7.506796 13.788571 -3.877490 0.000000 0.000000 0.000000 0.000000 0.000000 0.000000 -0.386984 -2.645167 -0.566181 -1.370989 -2.983759 0.286566 -3.591872 42.560303 6.899173 19.238684 -35.343569 7.160811 0.000000 0.000000 0.000000 0.000000 0.000000 0.000000 -0.350309 1.599144 -24.611823 0.699325 -1.322412 -0.693299 0.022173 -1.732118 -0.371182 0.000000 0.000000 0.000000 -0.128901 0.193738 -23.911490 -0.079131 -0.933170 -0.190811 -18.885573 24.154295 17.525633 0.000000 0.000000 0.000000
